<svg xmlns="http://www.w3.org/2000/svg" width="14.706" height="14.706" viewBox="0 0 14.706 14.706">
  <path id="Caminho_29337" data-name="Caminho 29337" d="M17.79,13.806l-1.313-1.313a2.1,2.1,0,0,0-2.947-.013,1.284,1.284,0,0,1-1.629.159,8.969,8.969,0,0,1-2.472-2.467A1.3,1.3,0,0,1,9.6,8.538,2.1,2.1,0,0,0,9.58,5.6L8.267,4.287a2.1,2.1,0,0,0-2.961,0l-.378.378C2.958,6.635,3.106,10.776,7.2,14.872c2.471,2.472,4.958,3.507,6.975,3.507a4.477,4.477,0,0,0,3.234-1.23l.378-.378A2.1,2.1,0,0,0,17.79,13.806Zm-.844,2.12-.378.378c-1.552,1.552-4.977,1.268-8.521-2.276S4.219,7.056,5.771,5.5l.375-.378a.9.9,0,0,1,1.273,0L8.733,6.44A.9.9,0,0,1,8.745,7.7a2.5,2.5,0,0,0-.317,3.127,10.153,10.153,0,0,0,2.813,2.809,2.494,2.494,0,0,0,3.122-.309.9.9,0,0,1,1.264.008l1.313,1.313a.9.9,0,0,1,.005,1.279Z" transform="translate(-3.698 -3.675)"/>
</svg>
