<svg xmlns="http://www.w3.org/2000/svg" width="16.227" height="16.227" viewBox="0 0 16.227 16.227">
  <g id="Grupo_20645" data-name="Grupo 20645" transform="translate(-32 -32)">
    <path id="Caminho_29335" data-name="Caminho 29335" d="M152.34,143.794c-.154-.41-.332-.381-.451-.385s-.223,0-.383,0a.78.78,0,0,0-.552.232,2.257,2.257,0,0,0-.775,1.656,3.907,3.907,0,0,0,.752,2.117,8.311,8.311,0,0,0,3.358,3.176c2.037.885,2.047.615,2.421.6a2.058,2.058,0,0,0,1.409-.908,1.673,1.673,0,0,0,.155-.955c-.048-.086-.181-.142-.381-.25s-1.181-.634-1.365-.708-.318-.113-.462.084-.55.636-.674.767-.243.142-.443.034a5.56,5.56,0,0,1-1.6-1.062,6.1,6.1,0,0,1-1.079-1.439c-.111-.206,0-.312.105-.408s.212-.228.318-.342a1.384,1.384,0,0,0,.216-.329.369.369,0,0,0,0-.354C152.863,145.212,152.494,144.2,152.34,143.794Z" transform="translate(-113.897 -107.37)" fill-rule="evenodd"/>
    <path id="Caminho_29336" data-name="Caminho 29336" d="M40.261,33.159a6.794,6.794,0,0,1,4.817,1.979,6.7,6.7,0,0,1,0,9.533,6.794,6.794,0,0,1-4.817,1.979,6.863,6.863,0,0,1-3.293-.84l-.435-.239-.473.15-2.226.707.7-2.07.174-.513-.281-.462a6.7,6.7,0,0,1,1.017-8.246,6.793,6.793,0,0,1,4.816-1.979m0-1.159a7.936,7.936,0,0,0-7.966,7.9,7.823,7.823,0,0,0,1.143,4.082L32,48.227l4.411-1.4A7.924,7.924,0,1,0,40.261,32Z"/>
  </g>
</svg>
