<svg xmlns="http://www.w3.org/2000/svg" width="19.781" height="19.779" viewBox="0 0 19.781 19.779">
  <path id="Caminho_29331" data-name="Caminho 29331" d="M21.437,18.835,16.706,14.1a7.7,7.7,0,0,0,1.124-4.019A8.159,8.159,0,0,0,9.845,2.1,7.744,7.744,0,0,0,2.1,9.847a8.16,8.16,0,0,0,7.984,7.983,7.7,7.7,0,0,0,3.9-1.057l4.756,4.759a1.193,1.193,0,0,0,1.685,0l1.181-1.181C22.071,19.887,21.9,19.3,21.437,18.835ZM4.484,9.846A5.361,5.361,0,0,1,9.846,4.484a5.777,5.777,0,0,1,5.6,5.6,5.363,5.363,0,0,1-5.361,5.362A5.779,5.779,0,0,1,4.484,9.846Z" transform="translate(-2.1 -2.101)"/>
</svg>
